<svg width="12" height="21" viewBox="0 0 12 21" fill="none" xmlns="http://www.w3.org/2000/svg">
<path d="M9.27125 4.77357H11.3759C11.4875 4.77357 11.5945 4.72924 11.6734 4.65033C11.7523 4.57142 11.7967 4.46439 11.7967 4.3528V1.51659C11.7969 1.41026 11.7569 1.30778 11.6846 1.22983C11.6122 1.15189 11.513 1.10428 11.407 1.09661C10.7344 1.0496 9.42984 0.985046 8.48868 0.985046C5.9035 0.985046 4.22042 2.53424 4.22042 5.34894V8.13813H1.27184C1.21659 8.13813 1.16187 8.14902 1.11082 8.17016C1.05977 8.19131 1.01339 8.2223 0.974315 8.26137C0.935243 8.30045 0.904249 8.34683 0.883103 8.39788C0.861958 8.44893 0.851074 8.50365 0.851074 8.5589V11.5075C0.851074 11.5627 0.861958 11.6175 0.883103 11.6685C0.904249 11.7196 0.935243 11.7659 0.974315 11.805C1.01339 11.8441 1.05977 11.8751 1.11082 11.8962C1.16187 11.9174 1.21659 11.9282 1.27184 11.9282H4.22042V19.9269C4.22042 20.0385 4.26475 20.1455 4.34366 20.2244C4.42257 20.3033 4.52959 20.3476 4.64119 20.3476H7.58977C7.70136 20.3476 7.80839 20.3033 7.8873 20.2244C7.96621 20.1455 8.01054 20.0385 8.01054 19.9269V11.929H11.0508C11.1544 11.9291 11.2544 11.8909 11.3316 11.8218C11.4088 11.7527 11.4578 11.6575 11.4691 11.5545L11.7967 8.60592C11.8032 8.54711 11.7972 8.48759 11.7791 8.43125C11.7611 8.3749 11.7313 8.323 11.6918 8.27893C11.6524 8.23486 11.604 8.19961 11.55 8.17549C11.496 8.15137 11.4375 8.13891 11.3783 8.13893H8.00815V6.03588C8.00836 5.70102 8.14153 5.37995 8.37838 5.14324C8.61524 4.90654 8.93639 4.77357 9.27125 4.77357Z" fill="#3F51B4"/>
</svg>
