<svg width="21" height="22" viewBox="0 0 21 22" fill="none" xmlns="http://www.w3.org/2000/svg">
<path d="M20.6322 9.0012H19.8042V8.95896H10.5448V13.0742H16.3623C15.9224 14.3235 15.0927 15.3984 13.9956 16.1403C12.8984 16.8822 11.5919 17.2519 10.2686 17.1949C8.9454 17.1379 7.6755 16.6572 6.64622 15.8237C5.61694 14.9901 4.88275 13.8479 4.55194 12.5654C4.22112 11.2829 4.31118 9.92807 4.80885 8.70066C5.30651 7.47325 6.18543 6.43824 7.31599 5.74828C8.44654 5.05832 9.7689 4.74992 11.088 4.86857C12.4072 4.98722 13.6533 5.52662 14.6426 6.40725L17.5497 3.49772C15.7568 1.83448 13.429 0.866035 10.9855 0.766792C8.54193 0.667549 6.14324 1.44403 4.22139 2.9564C2.29954 4.46877 0.98083 6.61764 0.502748 9.01602C0.0246662 11.4144 0.418629 13.9047 1.61369 16.0383C2.80875 18.172 4.72637 19.8089 7.0212 20.6542C9.31603 21.4995 11.8373 21.4976 14.1309 20.649C16.4244 19.8003 18.3396 18.1606 19.5316 16.0252C20.7235 13.8897 21.1138 11.3989 20.6322 9.0012Z" fill="#FFC107"/>
<path d="M1.43848 6.2271L4.82057 8.70709C5.18908 7.78938 5.77315 6.97391 6.52339 6.3296C7.27362 5.6853 8.16797 5.23111 9.1308 5.00545C10.0936 4.77979 11.0967 4.78928 12.0551 5.03313C13.0134 5.27698 13.899 5.74801 14.6369 6.4064L17.5465 3.49687C16.3917 2.41653 15.003 1.61751 13.4886 1.16213C11.9743 0.706747 10.3752 0.607309 8.81612 0.871569C7.25702 1.13583 5.78002 1.75664 4.50031 2.68561C3.22059 3.61457 2.17275 4.82657 1.43848 6.2271Z" fill="#FF3D00"/>
<path d="M10.5446 21.3055C13.0962 21.3063 15.5563 20.3549 17.4435 18.6375L14.2558 15.9431C13.485 16.5273 12.5875 16.9217 11.6358 17.0943C10.6842 17.267 9.70525 17.2129 8.77839 16.9366C7.85153 16.6603 7.00282 16.1695 6.30103 15.504C5.59924 14.8385 5.06413 14.017 4.73907 13.1061L1.38965 15.6889C2.24951 17.3781 3.55965 18.7967 5.17528 19.7879C6.79091 20.7791 8.64912 21.3043 10.5446 21.3055Z" fill="#4CAF50"/>
<path d="M20.6318 9.00111H19.8038V8.95888H10.5444V13.0741H16.3619C15.9559 14.2154 15.2245 15.2127 14.258 15.943L17.4457 18.6374C18.5276 17.688 19.3909 16.5154 19.9761 15.2003C20.5613 13.8852 20.8546 12.459 20.8358 11.0197C20.8346 10.3417 20.7663 9.66558 20.6318 9.00111Z" fill="#1976D2"/>
</svg>
